<svg width="54" height="60" viewBox="0 0 54 60" fill="none" xmlns="http://www.w3.org/2000/svg">
<g clip-path="url(#clip0_424_2619)">
<path d="M24.5415 29.8768C24.5415 30.5288 24.8005 31.1541 25.2615 31.6151C25.7226 32.0761 26.3478 32.3351 26.9998 32.3351C27.6518 32.3351 28.2771 32.0761 28.7381 31.6151C29.1992 31.1541 29.4582 30.5288 29.4582 29.8768C29.4582 29.2248 29.1992 28.5995 28.7381 28.1385C28.2771 27.6775 27.6518 27.4185 26.9998 27.4185C26.3478 27.4185 25.7226 27.6775 25.2615 28.1385C24.8005 28.5995 24.5415 29.2248 24.5415 29.8768Z" stroke="#FCFCFC" stroke-width="1.78385" stroke-linecap="round" stroke-linejoin="round"/>
<path d="M27.0002 17.5851C24.5691 17.5851 22.1926 18.306 20.1713 19.6566C18.1499 21.0073 16.5745 22.927 15.6441 25.173C14.7138 27.419 14.4704 29.8904 14.9447 32.2748C15.419 34.6591 16.5896 36.8493 18.3086 38.5683C20.0277 40.2873 22.2178 41.458 24.6022 41.9323C26.9865 42.4065 29.458 42.1631 31.704 41.2328C33.95 40.3025 35.8697 38.727 37.2203 36.7057C38.5709 34.6843 39.2918 32.3078 39.2918 29.8768" stroke="#FCFCFC" stroke-width="1.78385" stroke-linecap="round" stroke-linejoin="round"/>
<path d="M29.4594 7.88493C24.9018 7.37363 20.2979 8.29125 16.2847 10.5109C12.2714 12.7305 9.04707 16.1424 7.05767 20.2746C5.06827 24.4068 4.41214 29.0551 5.18004 33.5766C5.94794 38.098 8.10192 42.2691 11.344 45.5128C14.5861 48.7565 18.7561 50.9126 23.2771 51.6828C27.7982 52.453 32.4468 51.7992 36.5801 49.8119C40.7133 47.8245 44.1268 44.6019 46.3484 40.5898C48.5701 36.5776 49.49 31.9742 48.981 27.4164" stroke="#FCFCFC" stroke-width="1.78385" stroke-linecap="round" stroke-linejoin="round"/>
<path d="M34.375 15.1268V22.5018H41.75L49.125 15.1268H41.75V7.7518L34.375 15.1268Z" stroke="#FCFCFC" stroke-width="1.78385" stroke-linecap="round" stroke-linejoin="round"/>
<path d="M34.375 22.5018L27 29.8768" stroke="#FCFCFC" stroke-width="1.78385" stroke-linecap="round" stroke-linejoin="round"/>
</g>
<defs>
<clipPath id="clip0_424_2619">
<rect width="54" height="59" fill="white" transform="translate(0 0.375)"/>
</clipPath>
</defs>
</svg>
