<svg width="64" height="64" viewBox="0 0 64 64" fill="none" xmlns="http://www.w3.org/2000/svg">
<rect width="64" height="64" fill="#333131"/>
<g clip-path="url(#clip0_186_486)">
<rect width="1440" height="7428" transform="translate(-718 -4128)" fill="black"/>
<rect width="1440" height="2237" transform="translate(-718 -1703)" fill="black"/>
<rect x="-13" y="-70" width="495" height="443" rx="10" fill="#474545"/>
<rect width="64" height="64" rx="16" fill="white" fill-opacity="0.1"/>
<rect width="64" height="64" rx="16" fill="url(#paint0_radial_186_486)"/>
<g clip-path="url(#clip1_186_486)">
<path d="M27.5 23.5H25.5C24.9696 23.5 24.4609 23.7107 24.0858 24.0858C23.7107 24.4609 23.5 24.9696 23.5 25.5V27.5M27.5 23.5V19.5M27.5 23.5H36.5M23.5 27.5V36.5M23.5 27.5H19.5M36.5 23.5H38.5C39.0304 23.5 39.5391 23.7107 39.9142 24.0858C40.2893 24.4609 40.5 24.9696 40.5 25.5V27.5M36.5 23.5V19.5M40.5 27.5H44.5M40.5 27.5V36.5M27.5 44.5V40.5M36.5 44.5V40.5M40.5 36.5V38.5C40.5 39.0304 40.2893 39.5391 39.9142 39.9142C39.5391 40.2893 39.0304 40.5 38.5 40.5H25.5C24.9696 40.5 24.4609 40.2893 24.0858 39.9142C23.7107 39.5391 23.5 39.0304 23.5 38.5V36.5M40.5 36.5H44.5M23.5 36.5H19.5" stroke="white" stroke-width="3" stroke-linecap="round" stroke-linejoin="round"/>
</g>
</g>
<defs>
<radialGradient id="paint0_radial_186_486" cx="0" cy="0" r="1" gradientUnits="userSpaceOnUse" gradientTransform="translate(32 32) rotate(45) scale(45.2548)">
<stop stop-color="white" stop-opacity="0.2"/>
<stop offset="1" stop-color="white" stop-opacity="0"/>
</radialGradient>
<clipPath id="clip0_186_486">
<rect width="1440" height="7428" fill="white" transform="translate(-718 -4128)"/>
</clipPath>
<clipPath id="clip1_186_486">
<rect width="32" height="32" fill="white" transform="translate(16 16)"/>
</clipPath>
</defs>
</svg>
