<svg width="15" height="15" viewBox="0 0 15 15" fill="none" xmlns="http://www.w3.org/2000/svg">
<path d="M1 0V4.5C1 5.03043 1.21071 5.53914 1.58579 5.91421C1.96086 6.28929 2.46957 6.5 3 6.5C3.53043 6.5 4.03914 6.28929 4.41421 5.91421C4.78929 5.53914 5 5.03043 5 4.5V1.5C5 1.23478 4.89464 0.98043 4.70711 0.792893C4.51957 0.605357 4.26522 0.5 4 0.5C3.73478 0.5 3.48043 0.605357 3.29289 0.792893C3.10536 0.98043 3 1.23478 3 1.5V5M6.5 0.5H13C13.2652 0.5 13.5196 0.605357 13.7071 0.792893C13.8946 0.98043 14 1.23478 14 1.5V13.5C14 13.7652 13.8946 14.0196 13.7071 14.2071C13.5196 14.3946 13.2652 14.5 13 14.5H3C2.73478 14.5 2.48043 14.3946 2.29289 14.2071C2.10536 14.0196 2 13.7652 2 13.5V8M11.5 4.5H7.5M11.5 7.5H7.5M11.5 10.5H4.5" stroke="#FEFEFE"/>
</svg>
