<svg width="30" height="31" viewBox="0 0 30 31" fill="none" xmlns="http://www.w3.org/2000/svg">
<path d="M12.2313 2.75704C12.8978 -0.193665 17.1022 -0.193665 17.7687 2.75704C18.2006 4.6694 20.3952 5.57841 22.0529 4.53162C24.6106 2.91645 27.5835 5.88935 25.9684 8.44712C24.9216 10.1048 25.8306 12.2994 27.743 12.7313C30.6937 13.3978 30.6937 17.6022 27.743 18.2687C25.8306 18.7006 24.9216 20.8952 25.9684 22.5529C27.5835 25.1106 24.6106 28.0835 22.0529 26.4684C20.3952 25.4216 18.2006 26.3306 17.7687 28.243C17.1022 31.1937 12.8978 31.1937 12.2313 28.243C11.7994 26.3306 9.60481 25.4216 7.94712 26.4684C5.38935 28.0835 2.41645 25.1106 4.03162 22.5529C5.07841 20.8952 4.1694 18.7006 2.25704 18.2687C-0.693665 17.6022 -0.693665 13.3978 2.25704 12.7313C4.1694 12.2994 5.07841 10.1048 4.03162 8.44712C2.41645 5.88935 5.38935 2.91645 7.94712 4.53162C9.60481 5.57841 11.7994 4.6694 12.2313 2.75704Z" fill="#D9D9D9"/>
</svg>
