<svg width="50" height="50" viewBox="0 0 50 50" fill="none" xmlns="http://www.w3.org/2000/svg">
<rect width="50" height="50" fill="#333131"/>
<g clip-path="url(#clip0_554_1009)">
<rect width="430" height="3035" transform="translate(-363 -47)" fill="black"/>
<g clip-path="url(#clip1_554_1009)">
<rect width="453" height="77" transform="translate(-375 -14)" fill="black"/>
<circle cx="25" cy="25" r="25" fill="#FEFEFE"/>
<path d="M15 16.6666H23.3333C23.7754 16.6666 24.1993 16.8422 24.5118 17.1548C24.8244 17.4673 25 17.8913 25 18.3333C25 18.7753 24.8244 19.1992 24.5118 19.5118C24.1993 19.8244 23.7754 20 23.3333 20H15C14.558 20 14.134 19.8244 13.8215 19.5118C13.5089 19.1992 13.3333 18.7753 13.3333 18.3333C13.3333 17.8913 13.5089 17.4673 13.8215 17.1548C14.134 16.8422 14.558 16.6666 15 16.6666ZM26.6667 30H35C35.442 30 35.8659 30.1756 36.1785 30.4881C36.4911 30.8007 36.6667 31.2246 36.6667 31.6666C36.6667 32.1087 36.4911 32.5326 36.1785 32.8451C35.8659 33.1577 35.442 33.3333 35 33.3333H26.6667C26.2246 33.3333 25.8007 33.1577 25.4882 32.8451C25.1756 32.5326 25 32.1087 25 31.6666C25 31.2246 25.1756 30.8007 25.4882 30.4881C25.8007 30.1756 26.2246 30 26.6667 30ZM15 23.3333H35C35.442 23.3333 35.8659 23.5089 36.1785 23.8214C36.4911 24.134 36.6667 24.5579 36.6667 25C36.6667 25.442 36.4911 25.8659 36.1785 26.1785C35.8659 26.491 35.442 26.6666 35 26.6666H15C14.558 26.6666 14.134 26.491 13.8215 26.1785C13.5089 25.8659 13.3333 25.442 13.3333 25C13.3333 24.5579 13.5089 24.134 13.8215 23.8214C14.134 23.5089 14.558 23.3333 15 23.3333Z" fill="black"/>
</g>
</g>
<defs>
<clipPath id="clip0_554_1009">
<rect width="430" height="3035" fill="white" transform="translate(-363 -47)"/>
</clipPath>
<clipPath id="clip1_554_1009">
<rect width="453" height="77" fill="white" transform="translate(-375 -14)"/>
</clipPath>
</defs>
</svg>
