<svg width="6" height="8" viewBox="0 0 6 8" fill="none" xmlns="http://www.w3.org/2000/svg">
<path d="M1.07455 7.75413C1.27872 7.95829 1.60788 7.95829 1.81205 7.75413L5.27455 4.29163C5.31317 4.25308 5.34382 4.20729 5.36473 4.15689C5.38564 4.10648 5.3964 4.05245 5.3964 3.99788C5.3964 3.94331 5.38564 3.88927 5.36473 3.83887C5.34382 3.78846 5.31317 3.74267 5.27455 3.70413L1.81205 0.241626C1.60788 0.0374593 1.27872 0.0374593 1.07455 0.241626C0.870382 0.445793 0.870382 0.774959 1.07455 0.979126L4.09121 3.99996L1.07038 7.02079C0.870382 7.22079 0.870382 7.55413 1.07455 7.75413Z" fill="#EE3248"/>
</svg>
